<?xml version="1.0" standalone="no"?><!DOCTYPE svg PUBLIC "-//W3C//DTD SVG 1.1//EN" "http://www.w3.org/Graphics/SVG/1.1/DTD/svg11.dtd"><svg t="1579487323461" class="icon" viewBox="0 0 1024 1024" version="1.1" xmlns="http://www.w3.org/2000/svg" p-id="4466" xmlns:xlink="http://www.w3.org/1999/xlink" width="200" height="200"><defs><style type="text/css"></style></defs><path d="M831.3344 435.74272l-1.55648 0 0-71.77216c0-24.77056-20.15232-44.92288-44.93312-44.92288L392.46848 319.04768l-29.11232-76.41088c-3.04128-7.936-10.63936-13.18912-19.13856-13.18912L184.5248 229.44768c-5.45792 0-10.68032 2.17088-14.53056 6.0416-3.84 3.87072-5.9904 9.10336-5.94944 14.56128l0.12288 113.92 0 385.65888c0 24.77056 20.16256 44.92288 44.92288 44.92288l575.76448 0c0.44032 0 0.86016-0.12288 1.29024-0.13312l45.19936 0c16.10752 0 29.16352-13.04576 29.16352-29.16352L860.50816 464.896C860.48768 448.78848 847.44192 435.74272 831.3344 435.74272zM788.80768 435.74272l-508.2112 0c-16.10752 0-29.16352 13.04576-29.16352 29.16352l0 288.68608-42.36288 0c-2.18112 0-3.96288-1.78176-3.96288-3.96288L205.1072 363.84768l-0.26624-93.44 125.24544 0 29.12256 76.41088c3.0208 7.936 10.63936 13.18912 19.13856 13.18912l406.4768 0c2.19136 0 3.97312 1.78176 3.97312 3.96288L788.79744 435.74272z" p-id="4467" fill="#1296db"></path></svg>