<?xml version="1.0" standalone="no"?><!DOCTYPE svg PUBLIC "-//W3C//DTD SVG 1.1//EN" "http://www.w3.org/Graphics/SVG/1.1/DTD/svg11.dtd"><svg t="1579491013012" class="icon" viewBox="0 0 1024 1024" version="1.1" xmlns="http://www.w3.org/2000/svg" p-id="3252" xmlns:xlink="http://www.w3.org/1999/xlink" width="200" height="200"><defs><style type="text/css"></style></defs><path d="M767.232384 286.013793H649.173013v-49.127436c0-10.823388-8.827586-19.650975-19.650974-19.650975H393.710345c-10.823388 0-19.650975 8.827586-19.650975 19.650975v49.127436H256.076762c-10.823388 0-19.650975 8.827586-19.650975 19.650975 0 10.823388 8.827586 19.650975 19.650975 19.650974h20.725637l47.822489 429.02069c3.30075 29.86027 28.555322 52.428186 58.569115 52.428186h256.767616c30.013793 0 55.268366-22.567916 58.569116-52.428186l47.822488-429.02069h20.725638c10.823388 0 19.650975-8.750825 19.650974-19.650974 0.153523-10.823388-8.674063-19.650975-19.497451-19.650975z m-353.871065-29.476462h196.509745v29.476462h-196.509745v-29.476462zM659.535832 749.961019c-1.074663 9.97901-9.518441 17.501649-19.497451 17.50165H383.270765c-9.97901 0-18.422789-7.522639-19.497452-17.50165l-47.361919-424.645277H706.974513L659.535832 749.961019z m-88.966717-48.283058c10.823388 0 19.650975-8.827586 19.650975-19.650974V393.556822c0-10.823388-8.827586-19.650975-19.650975-19.650975s-19.650975 8.827586-19.650974 19.650975v288.546926c0 10.823388 8.827586 19.574213 19.650974 19.574213z m-108.080359 0c10.823388 0 19.650975-8.827586 19.650974-19.650974V393.556822c0-10.823388-8.827586-19.650975-19.650974-19.650975-10.823388 0-19.650975 8.827586-19.650975 19.650975v288.546926c0 10.823388 8.827586 19.574213 19.650975 19.574213z m0 0" p-id="3253" fill="#d81e06"></path></svg>